<svg xmlns="http://www.w3.org/2000/svg" fill-rule="evenodd" stroke-linejoin="round" stroke-miterlimit="2" clip-rule="evenodd" viewBox="0 0 1024 1024"><path fill="none" d="M0 0h1024v1024H0z"/><path fill="#ff3f00" d="M200 565c-5-16-8-34-8-53 0-209 181-426 320-426 148 0 320 217 320 426 0 19-3 37-8 53 45 21 76 49 76 89 1 140-208 284-388 284-169 0-389-144-388-284 0-40 31-68 76-89zm624 0a958 958 0 00-624 0c49 157 311 160 312 160s263-3 312-160zM307 299c-20 20-2 98 29 105 26 5 78-59 76-77-2-28-82-51-105-28zm410 0c20 20 2 98-29 105-26 5-78-59-76-77 2-28 82-51 105-28z"/></svg>