<?xml version="1.0" standalone="no"?>
<!DOCTYPE svg PUBLIC "-//W3C//DTD SVG 20010904//EN"
 "http://www.w3.org/TR/2001/REC-SVG-20010904/DTD/svg10.dtd">
<svg version="1.0" xmlns="http://www.w3.org/2000/svg"
 width="1024.000000pt" height="1024.000000pt" viewBox="0 0 1024.000000 1024.000000"
 preserveAspectRatio="xMidYMid meet">
<metadata>
Created by potrace 1.14, written by Peter Selinger 2001-2017
</metadata>
<g transform="translate(0.000000,1024.000000) scale(0.100000,-0.100000)"
fill="#000000" stroke="none">
<path d="M4988 9375 c-2 -1 -23 -5 -48 -9 -116 -15 -198 -34 -310 -69 -153
-50 -342 -135 -475 -215 -75 -45 -258 -163 -265 -171 -3 -3 -32 -26 -65 -51
-455 -341 -914 -875 -1245 -1450 -286 -498 -512 -1103 -595 -1595 -3 -16 -7
-41 -10 -55 -5 -26 -9 -53 -20 -135 -3 -27 -8 -64 -10 -81 -19 -141 -26 -496
-12 -631 7 -72 37 -219 56 -283 6 -19 11 -36 11 -37 0 -2 -37 -21 -82 -44
-380 -191 -605 -431 -663 -707 -23 -107 -12 -309 24 -477 41 -182 164 -456
293 -650 236 -355 621 -726 1051 -1014 104 -69 296 -189 327 -204 8 -4 35 -19
60 -33 166 -96 516 -257 719 -331 272 -99 568 -181 771 -213 41 -7 84 -14 95
-17 11 -2 43 -6 70 -9 28 -3 59 -7 70 -10 105 -25 678 -24 805 1 14 3 50 8 80
10 30 3 62 8 70 10 8 2 35 7 60 10 25 3 61 10 80 15 19 5 53 12 75 15 115 18
613 163 700 204 11 6 63 26 115 47 131 51 450 206 595 289 357 205 668 438
930 700 192 192 272 287 398 473 243 360 358 704 352 1052 -2 106 -6 137 -29
205 -86 253 -294 458 -646 635 -44 22 -80 41 -80 43 0 1 5 18 11 37 5 19 12
42 14 50 18 74 27 121 31 155 3 22 9 69 14 105 8 69 6 460 -4 520 -3 19 -8 60
-11 91 -2 31 -7 74 -11 95 -21 139 -46 282 -64 364 -11 52 -23 104 -25 116
-19 88 -114 400 -136 449 -5 11 -11 29 -13 40 -20 94 -239 578 -351 775 -21
36 -46 81 -57 100 -60 106 -238 381 -285 440 -6 8 -46 60 -89 115 -170 221
-368 437 -545 596 -40 35 -77 69 -83 74 -11 10 -114 94 -131 108 -5 4 -28 21
-50 38 -164 128 -490 317 -641 372 -148 55 -196 70 -282 92 -53 13 -115 26
-137 30 -23 3 -52 8 -65 11 -26 6 -336 14 -342 9z m-1503 -2039 c33 -3 69 -8
80 -10 252 -54 437 -148 517 -263 46 -67 46 -133 -1 -227 -110 -225 -374 -508
-559 -600 -133 -67 -244 -34 -343 100 -76 103 -145 268 -169 403 -5 31 -12 72
-16 91 -10 56 -7 211 6 265 15 68 43 127 71 154 22 21 91 62 114 67 6 2 21 6
35 9 14 4 43 9 65 12 22 3 41 6 42 7 3 3 94 -2 158 -8z m3480 0 c109 -11 205
-69 245 -146 61 -120 54 -376 -17 -589 -46 -139 -124 -275 -185 -326 -77 -64
-91 -70 -163 -70 -57 1 -80 6 -125 29 -91 47 -183 121 -290 233 -164 171 -293
371 -306 473 -12 96 81 205 240 283 65 32 192 79 206 76 3 0 17 4 32 10 27 10
70 18 178 30 54 7 106 6 185 -3z m-1310 -2240 c22 -2 90 -7 150 -11 113 -6
150 -9 244 -20 63 -8 102 -12 196 -20 39 -3 82 -8 97 -11 15 -3 39 -7 55 -9
285 -37 678 -111 973 -182 14 -3 32 -7 40 -9 23 -4 93 -23 220 -59 63 -18 129
-36 145 -39 34 -8 359 -110 422 -133 l42 -15 -25 -70 c-158 -437 -524 -808
-1049 -1065 -329 -160 -733 -287 -1170 -368 -96 -17 -340 -54 -405 -60 -36 -3
-81 -8 -100 -10 -175 -20 -444 -26 -610 -12 -108 9 -343 35 -380 41 -14 3 -70
12 -125 20 -515 81 -1008 234 -1375 428 -282 148 -541 351 -695 543 -22 28
-43 52 -46 55 -4 3 -33 45 -65 95 -67 103 -130 228 -167 332 l-26 71 27 10
c90 34 477 152 546 167 10 3 58 15 105 29 77 21 109 30 161 41 157 36 245 57
250 60 3 2 46 11 95 19 50 9 101 18 115 21 103 21 337 61 410 71 19 2 68 9
109 15 41 6 87 13 103 15 16 2 45 5 66 8 20 3 69 8 107 11 39 4 84 8 100 10
118 14 162 18 390 30 72 4 132 9 134 10 5 5 890 -3 936 -9z"/>
</g>
</svg>
